<?xml version="1.0" encoding="utf-8"?>
<svg xmlns="http://www.w3.org/2000/svg" xmlns:xlink="http://www.w3.org/1999/xlink" style="margin: auto; background: none; display: block; shape-rendering: auto;" width="200px" height="200px" viewBox="0 0 100 100" preserveAspectRatio="xMidYMid">
<g transform="rotate(0 50 50)">
  <rect x="48.5" y="20.5" rx="1.5" ry="5.1000000000000005" width="3" height="17" fill="#fe718d">
    <animate attributeName="opacity" values="1;0" keyTimes="0;1" dur="1s" begin="-0.9767441860465116s" repeatCount="indefinite"></animate>
  </rect>
</g><g transform="rotate(8.372093023255815 50 50)">
  <rect x="48.5" y="20.5" rx="1.5" ry="5.1000000000000005" width="3" height="17" fill="#f47e60">
    <animate attributeName="opacity" values="1;0" keyTimes="0;1" dur="1s" begin="-0.9534883720930233s" repeatCount="indefinite"></animate>
  </rect>
</g><g transform="rotate(16.74418604651163 50 50)">
  <rect x="48.5" y="20.5" rx="1.5" ry="5.1000000000000005" width="3" height="17" fill="#f8b26a">
    <animate attributeName="opacity" values="1;0" keyTimes="0;1" dur="1s" begin="-0.9302325581395349s" repeatCount="indefinite"></animate>
  </rect>
</g><g transform="rotate(25.11627906976744 50 50)">
  <rect x="48.5" y="20.5" rx="1.5" ry="5.1000000000000005" width="3" height="17" fill="#abbd81">
    <animate attributeName="opacity" values="1;0" keyTimes="0;1" dur="1s" begin="-0.9069767441860465s" repeatCount="indefinite"></animate>
  </rect>
</g><g transform="rotate(33.48837209302326 50 50)">
  <rect x="48.5" y="20.5" rx="1.5" ry="5.1000000000000005" width="3" height="17" fill="#849b87">
    <animate attributeName="opacity" values="1;0" keyTimes="0;1" dur="1s" begin="-0.8837209302325582s" repeatCount="indefinite"></animate>
  </rect>
</g><g transform="rotate(41.86046511627907 50 50)">
  <rect x="48.5" y="20.5" rx="1.5" ry="5.1000000000000005" width="3" height="17" fill="#6492ac">
    <animate attributeName="opacity" values="1;0" keyTimes="0;1" dur="1s" begin="-0.8604651162790697s" repeatCount="indefinite"></animate>
  </rect>
</g><g transform="rotate(50.23255813953488 50 50)">
  <rect x="48.5" y="20.5" rx="1.5" ry="5.1000000000000005" width="3" height="17" fill="#637cb5">
    <animate attributeName="opacity" values="1;0" keyTimes="0;1" dur="1s" begin="-0.8372093023255814s" repeatCount="indefinite"></animate>
  </rect>
</g><g transform="rotate(58.604651162790695 50 50)">
  <rect x="48.5" y="20.5" rx="1.5" ry="5.1000000000000005" width="3" height="17" fill="#6a63b6">
    <animate attributeName="opacity" values="1;0" keyTimes="0;1" dur="1s" begin="-0.813953488372093s" repeatCount="indefinite"></animate>
  </rect>
</g><g transform="rotate(66.97674418604652 50 50)">
  <rect x="48.5" y="20.5" rx="1.5" ry="5.1000000000000005" width="3" height="17" fill="#fe718d">
    <animate attributeName="opacity" values="1;0" keyTimes="0;1" dur="1s" begin="-0.7906976744186046s" repeatCount="indefinite"></animate>
  </rect>
</g><g transform="rotate(75.34883720930233 50 50)">
  <rect x="48.5" y="20.5" rx="1.5" ry="5.1000000000000005" width="3" height="17" fill="#f47e60">
    <animate attributeName="opacity" values="1;0" keyTimes="0;1" dur="1s" begin="-0.7674418604651163s" repeatCount="indefinite"></animate>
  </rect>
</g><g transform="rotate(83.72093023255815 50 50)">
  <rect x="48.5" y="20.5" rx="1.5" ry="5.1000000000000005" width="3" height="17" fill="#f8b26a">
    <animate attributeName="opacity" values="1;0" keyTimes="0;1" dur="1s" begin="-0.7441860465116279s" repeatCount="indefinite"></animate>
  </rect>
</g><g transform="rotate(92.09302325581395 50 50)">
  <rect x="48.5" y="20.5" rx="1.5" ry="5.1000000000000005" width="3" height="17" fill="#abbd81">
    <animate attributeName="opacity" values="1;0" keyTimes="0;1" dur="1s" begin="-0.7209302325581395s" repeatCount="indefinite"></animate>
  </rect>
</g><g transform="rotate(100.46511627906976 50 50)">
  <rect x="48.5" y="20.5" rx="1.5" ry="5.1000000000000005" width="3" height="17" fill="#849b87">
    <animate attributeName="opacity" values="1;0" keyTimes="0;1" dur="1s" begin="-0.6976744186046512s" repeatCount="indefinite"></animate>
  </rect>
</g><g transform="rotate(108.83720930232558 50 50)">
  <rect x="48.5" y="20.5" rx="1.5" ry="5.1000000000000005" width="3" height="17" fill="#6492ac">
    <animate attributeName="opacity" values="1;0" keyTimes="0;1" dur="1s" begin="-0.6744186046511628s" repeatCount="indefinite"></animate>
  </rect>
</g><g transform="rotate(117.20930232558139 50 50)">
  <rect x="48.5" y="20.5" rx="1.5" ry="5.1000000000000005" width="3" height="17" fill="#637cb5">
    <animate attributeName="opacity" values="1;0" keyTimes="0;1" dur="1s" begin="-0.6511627906976745s" repeatCount="indefinite"></animate>
  </rect>
</g><g transform="rotate(125.5813953488372 50 50)">
  <rect x="48.5" y="20.5" rx="1.5" ry="5.1000000000000005" width="3" height="17" fill="#6a63b6">
    <animate attributeName="opacity" values="1;0" keyTimes="0;1" dur="1s" begin="-0.627906976744186s" repeatCount="indefinite"></animate>
  </rect>
</g><g transform="rotate(133.95348837209303 50 50)">
  <rect x="48.5" y="20.5" rx="1.5" ry="5.1000000000000005" width="3" height="17" fill="#fe718d">
    <animate attributeName="opacity" values="1;0" keyTimes="0;1" dur="1s" begin="-0.6046511627906976s" repeatCount="indefinite"></animate>
  </rect>
</g><g transform="rotate(142.32558139534885 50 50)">
  <rect x="48.5" y="20.5" rx="1.5" ry="5.1000000000000005" width="3" height="17" fill="#f47e60">
    <animate attributeName="opacity" values="1;0" keyTimes="0;1" dur="1s" begin="-0.5813953488372093s" repeatCount="indefinite"></animate>
  </rect>
</g><g transform="rotate(150.69767441860466 50 50)">
  <rect x="48.5" y="20.5" rx="1.5" ry="5.1000000000000005" width="3" height="17" fill="#f8b26a">
    <animate attributeName="opacity" values="1;0" keyTimes="0;1" dur="1s" begin="-0.5581395348837209s" repeatCount="indefinite"></animate>
  </rect>
</g><g transform="rotate(159.06976744186048 50 50)">
  <rect x="48.5" y="20.5" rx="1.5" ry="5.1000000000000005" width="3" height="17" fill="#abbd81">
    <animate attributeName="opacity" values="1;0" keyTimes="0;1" dur="1s" begin="-0.5348837209302325s" repeatCount="indefinite"></animate>
  </rect>
</g><g transform="rotate(167.4418604651163 50 50)">
  <rect x="48.5" y="20.5" rx="1.5" ry="5.1000000000000005" width="3" height="17" fill="#849b87">
    <animate attributeName="opacity" values="1;0" keyTimes="0;1" dur="1s" begin="-0.5116279069767442s" repeatCount="indefinite"></animate>
  </rect>
</g><g transform="rotate(175.8139534883721 50 50)">
  <rect x="48.5" y="20.5" rx="1.5" ry="5.1000000000000005" width="3" height="17" fill="#6492ac">
    <animate attributeName="opacity" values="1;0" keyTimes="0;1" dur="1s" begin="-0.4883720930232558s" repeatCount="indefinite"></animate>
  </rect>
</g><g transform="rotate(184.1860465116279 50 50)">
  <rect x="48.5" y="20.5" rx="1.5" ry="5.1000000000000005" width="3" height="17" fill="#637cb5">
    <animate attributeName="opacity" values="1;0" keyTimes="0;1" dur="1s" begin="-0.46511627906976744s" repeatCount="indefinite"></animate>
  </rect>
</g><g transform="rotate(192.5581395348837 50 50)">
  <rect x="48.5" y="20.5" rx="1.5" ry="5.1000000000000005" width="3" height="17" fill="#6a63b6">
    <animate attributeName="opacity" values="1;0" keyTimes="0;1" dur="1s" begin="-0.4418604651162791s" repeatCount="indefinite"></animate>
  </rect>
</g><g transform="rotate(200.93023255813952 50 50)">
  <rect x="48.5" y="20.5" rx="1.5" ry="5.1000000000000005" width="3" height="17" fill="#fe718d">
    <animate attributeName="opacity" values="1;0" keyTimes="0;1" dur="1s" begin="-0.4186046511627907s" repeatCount="indefinite"></animate>
  </rect>
</g><g transform="rotate(209.30232558139534 50 50)">
  <rect x="48.5" y="20.5" rx="1.5" ry="5.1000000000000005" width="3" height="17" fill="#f47e60">
    <animate attributeName="opacity" values="1;0" keyTimes="0;1" dur="1s" begin="-0.3953488372093023s" repeatCount="indefinite"></animate>
  </rect>
</g><g transform="rotate(217.67441860465115 50 50)">
  <rect x="48.5" y="20.5" rx="1.5" ry="5.1000000000000005" width="3" height="17" fill="#f8b26a">
    <animate attributeName="opacity" values="1;0" keyTimes="0;1" dur="1s" begin="-0.37209302325581395s" repeatCount="indefinite"></animate>
  </rect>
</g><g transform="rotate(226.04651162790697 50 50)">
  <rect x="48.5" y="20.5" rx="1.5" ry="5.1000000000000005" width="3" height="17" fill="#abbd81">
    <animate attributeName="opacity" values="1;0" keyTimes="0;1" dur="1s" begin="-0.3488372093023256s" repeatCount="indefinite"></animate>
  </rect>
</g><g transform="rotate(234.41860465116278 50 50)">
  <rect x="48.5" y="20.5" rx="1.5" ry="5.1000000000000005" width="3" height="17" fill="#849b87">
    <animate attributeName="opacity" values="1;0" keyTimes="0;1" dur="1s" begin="-0.32558139534883723s" repeatCount="indefinite"></animate>
  </rect>
</g><g transform="rotate(242.7906976744186 50 50)">
  <rect x="48.5" y="20.5" rx="1.5" ry="5.1000000000000005" width="3" height="17" fill="#6492ac">
    <animate attributeName="opacity" values="1;0" keyTimes="0;1" dur="1s" begin="-0.3023255813953488s" repeatCount="indefinite"></animate>
  </rect>
</g><g transform="rotate(251.1627906976744 50 50)">
  <rect x="48.5" y="20.5" rx="1.5" ry="5.1000000000000005" width="3" height="17" fill="#637cb5">
    <animate attributeName="opacity" values="1;0" keyTimes="0;1" dur="1s" begin="-0.27906976744186046s" repeatCount="indefinite"></animate>
  </rect>
</g><g transform="rotate(259.5348837209302 50 50)">
  <rect x="48.5" y="20.5" rx="1.5" ry="5.1000000000000005" width="3" height="17" fill="#6a63b6">
    <animate attributeName="opacity" values="1;0" keyTimes="0;1" dur="1s" begin="-0.2558139534883721s" repeatCount="indefinite"></animate>
  </rect>
</g><g transform="rotate(267.90697674418607 50 50)">
  <rect x="48.5" y="20.5" rx="1.5" ry="5.1000000000000005" width="3" height="17" fill="#fe718d">
    <animate attributeName="opacity" values="1;0" keyTimes="0;1" dur="1s" begin="-0.23255813953488372s" repeatCount="indefinite"></animate>
  </rect>
</g><g transform="rotate(276.27906976744185 50 50)">
  <rect x="48.5" y="20.5" rx="1.5" ry="5.1000000000000005" width="3" height="17" fill="#f47e60">
    <animate attributeName="opacity" values="1;0" keyTimes="0;1" dur="1s" begin="-0.20930232558139536s" repeatCount="indefinite"></animate>
  </rect>
</g><g transform="rotate(284.6511627906977 50 50)">
  <rect x="48.5" y="20.5" rx="1.5" ry="5.1000000000000005" width="3" height="17" fill="#f8b26a">
    <animate attributeName="opacity" values="1;0" keyTimes="0;1" dur="1s" begin="-0.18604651162790697s" repeatCount="indefinite"></animate>
  </rect>
</g><g transform="rotate(293.0232558139535 50 50)">
  <rect x="48.5" y="20.5" rx="1.5" ry="5.1000000000000005" width="3" height="17" fill="#abbd81">
    <animate attributeName="opacity" values="1;0" keyTimes="0;1" dur="1s" begin="-0.16279069767441862s" repeatCount="indefinite"></animate>
  </rect>
</g><g transform="rotate(301.3953488372093 50 50)">
  <rect x="48.5" y="20.5" rx="1.5" ry="5.1000000000000005" width="3" height="17" fill="#849b87">
    <animate attributeName="opacity" values="1;0" keyTimes="0;1" dur="1s" begin="-0.13953488372093023s" repeatCount="indefinite"></animate>
  </rect>
</g><g transform="rotate(309.7674418604651 50 50)">
  <rect x="48.5" y="20.5" rx="1.5" ry="5.1000000000000005" width="3" height="17" fill="#6492ac">
    <animate attributeName="opacity" values="1;0" keyTimes="0;1" dur="1s" begin="-0.11627906976744186s" repeatCount="indefinite"></animate>
  </rect>
</g><g transform="rotate(318.13953488372096 50 50)">
  <rect x="48.5" y="20.5" rx="1.5" ry="5.1000000000000005" width="3" height="17" fill="#637cb5">
    <animate attributeName="opacity" values="1;0" keyTimes="0;1" dur="1s" begin="-0.09302325581395349s" repeatCount="indefinite"></animate>
  </rect>
</g><g transform="rotate(326.51162790697674 50 50)">
  <rect x="48.5" y="20.5" rx="1.5" ry="5.1000000000000005" width="3" height="17" fill="#6a63b6">
    <animate attributeName="opacity" values="1;0" keyTimes="0;1" dur="1s" begin="-0.06976744186046512s" repeatCount="indefinite"></animate>
  </rect>
</g><g transform="rotate(334.8837209302326 50 50)">
  <rect x="48.5" y="20.5" rx="1.5" ry="5.1000000000000005" width="3" height="17" fill="#fe718d">
    <animate attributeName="opacity" values="1;0" keyTimes="0;1" dur="1s" begin="-0.046511627906976744s" repeatCount="indefinite"></animate>
  </rect>
</g><g transform="rotate(343.25581395348837 50 50)">
  <rect x="48.5" y="20.5" rx="1.5" ry="5.1000000000000005" width="3" height="17" fill="#f47e60">
    <animate attributeName="opacity" values="1;0" keyTimes="0;1" dur="1s" begin="-0.023255813953488372s" repeatCount="indefinite"></animate>
  </rect>
</g><g transform="rotate(351.6279069767442 50 50)">
  <rect x="48.5" y="20.5" rx="1.5" ry="5.1000000000000005" width="3" height="17" fill="#f8b26a">
    <animate attributeName="opacity" values="1;0" keyTimes="0;1" dur="1s" begin="0s" repeatCount="indefinite"></animate>
  </rect>
</g>
<!-- [ldio] generated by https://loading.io/ --></svg>